<?xml version="1.0" encoding="UTF-8"?>
<svg id="Layer_1" data-name="Layer 1" xmlns="http://www.w3.org/2000/svg" viewBox="0 0 103.64 122.24">
  <defs>
    <style>
      .cls-1 {
        fill: #fb670b;
      }
    </style>
  </defs>
  <g>
    <path class="cls-1" d="M3.18,44.74c-.22.08-.43.16-.43.16l.03.07c.14-.08.28-.16.4-.23Z"/>
    <path class="cls-1" d="M3.24,43.63l-.13.05s.03.04.06.05c.02-.03.06-.07.09-.1h0Z"/>
    <path class="cls-1" d="M2.78,44.97c.15.27.44.5.33.87-.24.09-.72.26-.97.35-.18.24.12.32.18.47-.24.09-.48.18-.46.26-.08.27.23.3.72.19.69-1.26,3.21-2.54.18-2.14h.02Z"/>
    <path class="cls-1" d="M4.45,43.64l-1.26.46c-.06.23-.17.47.03.61.6-.38.94-.67,1.23-1.07Z"/>
    <path class="cls-1" d="M100.69,3.83s-.01-.08.23-.11c-.08.04-.16.07-.23.11.02.05.06.11-.03.18.77-.46,1.67-.97,2.58-1.42.08-.14.15-.28.22-.4-2.24,1.08-4.52,2.12-6.18,3.38,1.32-.59,2.16-1.15,3.41-1.74h0Z"/>
    <path class="cls-1" d="M103.4,1.65c.08-.04.16-.07.23-.11-.24.03-.25.06-.23.11Z"/>
    <path class="cls-1" d="M63.46,21.32c-1.39.66-2.52,1.46-3.67,2.25,2.58-1.35,5.29-2.6,7.19-3.76-1.16.52-2.34,1.02-3.52,1.52h0Z"/>
    <path class="cls-1" d="M53.93,27.19c1.83-.58,3.2-1.38,4.48-2.22-1.38.66-2.77,1.29-4.14,1.94l-.35.28h0Z"/>
    <path class="cls-1" d="M55.68,25.9c1.62-.66,2.87-1.5,4.1-2.33-1.46.75-2.88,1.53-4.1,2.33Z"/>
    <path class="cls-1" d="M84.22,5.22c.94-.69,1.53-1.06,1.87-1.25.11-.18.25-.4.46-.69-.06.03-.13.05-.19.09-1.01.62-2.04,1.23-3.09,1.84-.41.3-.79.59-1.09.88.68-.28,1.37-.56,2.04-.86h0Z"/>
    <path class="cls-1" d="M86.09,3.97c-.92,1.53,1.36-.72,0,0h0Z"/>
    <path class="cls-1" d="M81.59,11.8l-.16.07-.45.26c.21-.11.4-.22.6-.33h0Z"/>
    <path class="cls-1" d="M67.55,15.24c.92-.43,1.82-.87,2.69-1.34-1.84.89-3.7,1.77-5.16,2.67.23-.1.51-.12.74-.22.4-.35,1.03-.81,1.73-1.11h0Z"/>
    <path class="cls-1" d="M88.53,7.86c-2.44,1.32-4.81,2.67-7.11,4-4.89,2.18-9.55,4.4-13.54,6.85-3.48,2.23-10.16,4.81-13.4,7.62.42-.13.82-.28,1.2-.44-.51.34-.98.67-1.4,1.02-6.15,2.83-12.24,5.47-18.68,8-.95.38-1.57.89-2.53,1.26-.96.39-1.91.77-2.85,1.16,0,.02.02.03.06.03-3.9,1.62-7.71,3.26-11.71,5.05-1.89.8-3.85,1.44-5.77,2.15-.72.27-.85-.05-1.36.05-2.08.32-3.65.53-5.88,1.15,0,0-.07-.16-.09-.24-.32.15-.62.25-.87.32.69-1.26,3.2-2.54.18-2.14h0c.14-.08.27-.16.4-.24l.05-.02h0c.6-.38.94-.68,1.23-1.08l-1.26.46c.04-.14.04-.27-.04-.36l.09-.1c.19-.07.34-.12.34-.12.04-.08.06-.16.06-.24.97-.74,2.63-1.56,2.17-1.76-.32-.07-1.07.37-1.94.8-.07-.01-.14-.02-.21-.01,1.17-.51-.21-.56.47-.89.96-.35,1.88-.78,2.84-1.13,3.9-1.43,7.15-2.74,10.87-4.42l.49-.22c1.8-.8,3.54-1.49,5.38-2.12-.1.1-.19.19-.3.29,1.48-.5,2.94-1.06,4.34-1.74,3.44-1.69,6.86-3.42,10.62-4.99,3.94-1.65,7.68-3.36,11.58-5.25-1.56.85-3.13,1.67-4.8,2.4-.76.3-1.51.6-2.24.92.77-.28,1.51-.59,2.24-.92,2.92-1.15,5.95-2.27,7.86-3.93.27-.04.3.04.54-.05,1.65-.68,3.33-1.29,4.59-2.19-.03-.07.67-.37.36-.43,1.37-.67,3.02-1.35,4.36-2.11.59-.31,1.12-.72,1.65-1.16,4.82-2.57,9.61-5.1,14.79-7.86,1.3-.66,2.84-1.35,4.19-1.95-1.87,1.14-3.81,2.26-5.81,3.37-2.05.83-3.98,1.68-5.4,2.76-.34.23-.69.46-1.02.69,2.17-1.14,4.33-2.29,6.42-3.45,1.2-.49,2.46-.97,3.66-1.5l-.06.05c-.89.52-1.79,1.02-2.71,1.53-1.82.74-3.56,1.49-4.91,2.41-.17.11-.33.23-.49.36-.34.23-.69.46-1.02.69,1.34-.71,2.67-1.42,3.99-2.12.81-.44,1.63-.89,2.44-1.33.54-.22,1.08-.44,1.62-.65l-.14.13c-.43.28-1.31,1.76-.51,1.68,1.79-.79,3.89-1.85,5.56-2.69.83-.42,1.56-.79,2.07-1.05.52-.26.82-.41.84-.39.38.21-5.57,3.33-5.29,3.31.36-.12.72-.25,1.07-.37-.29.21-.59.41-.85.62-.66.38-1.63.72-2.03,1.08-1.41,1.18-3.36,1.85-5.08,2.97-1.06.74-2.33,1.65-3.59,2.57.08.15-.67.38-.37.44-1.32.58-2.85,1.23-3.21,1.92l-.09.06c-.1.04-.22.13-.34.22-2.25.85-3.58,1.95-5.46,3.09-.67.33-1.37.65-2.08.96.47-.19,1.21-.42,1.65-.69l.44-.26c1.74-.85,3.35-1.79,4.97-2.68.12-.11.3-.27.49-.41l.37-.14s.03-.09.06-.13c1.52-.91,3.31-1.78,4.59-2.6,2.48-1.38,5.3-2.46,7.96-3.58-1.26.71-2.49,1.41-3.69,2.12,1.52-.84,2.96-1.63,4.37-2.41.22-.1.45-.2.67-.3l1.4-.63c-.45.17-.89.33-1.33.5.82-.48,1.64-.96,2.44-1.43,4.5-2.43,9.22-4.79,13.97-6.83-.05.13-.11.27-.18.42-2.24,1.08-4.51,2.12-6.18,3.37,1.31-.6,2.15-1.14,3.41-1.73.02.05.06.11-.03.18.77-.46,1.67-.97,2.58-1.42-.2.33-.43.68-.66,1.02-.39.36-1.08.68-1.75,1.08-2.95,1.5-5.81,2.75-8.71,4.27-2.66,1.16-5.33,2.32-7.94,3.46,2.49-1.35,4.76-2.63,6.94-3.94h0ZM10.01,42.17c.23-.12.46-.26.71-.39l-.13-.02c-.23.09-.44.25-.58.41ZM15.65,40.16c-1.7.49-3.8,1.46-5.85,2.36,0,.03,0,.05,0,.07,1.79-.58,3.88-1.56,5.84-2.43ZM22.89,39.32h-.05s.02.02.02.02c0,0,.03-.02.03-.02ZM50.85,25.41c-1.72,1.16-4.09,2.13-6.4,3.23-.71.28-1.29.88-2.24,1.27-1.15.56-1.8,1-2.72,1.45l.78-.12c-1.7.58-2.45,1.43-4.19,1.92.03.07-.14.33-.38.43-1.16.55-2.42.85-3.3,1.38-1.16.54-2.35,1-3.24,1.53-.24.1-.62.51-1.07.78l-1.72.75.09.03c.48-.18.96-.37,1.41-.61,1.37-.71,2.97-1.52,4.38-2.15,3.52-1.54,6.72-3.17,9.91-4.82.68-.36,1.33-.8,2.01-1.17,2-1.16,4.65-2.15,5.83-3.27.21-.17.68-.36.85-.62h.01ZM52.02,20.95c-2.34,1.35-5.04,2.62-7.42,3.5-1.9.76-7.14,3.4-5.79,3.96,1.64-2.62,15.63-6.33,13.21-7.47ZM70.96,11.31c-.92.55-1.83,1.05-2.94,1.53l2.94-1.53ZM62.39,18.7c2.82-1.82,6.06-3.31,8.97-4.91,2.23-1.25,4.99-1.97,6.83-3.42l-.11-.23-.2.18c-.84.31-1.56.47-2.28.71l.11-.07-.21.1c-.48.16-.96.35-1.48.65-.24.14-.48.29-.72.44-2.85,1.4-5.83,2.8-8.26,4.42-1.54.92-2.78,1.9-4.32,2.82.47-.19,1.21-.42,1.65-.69h0Z"/>
    <path class="cls-1" d="M84.15,9.59c.97-.53,1.95-1.07,2.92-1.61.74-.45,1.47-.91,2.21-1.36,3.54-2.08,7.96-3.91,11.86-5.93,0-.28-.09-.51-.35-.69-4.45,1.74-8.6,4.12-13.01,5.93l-.09.07c-1.65,1.29-4.74,2.48-6.9,3.88-2.12,1.49-4.39,2.66-6.55,4.06,3.39-1.46,6.51-3.03,9.91-4.35h0Z"/>
    <path class="cls-1" d="M58.41,24.98c.91-.43,1.81-.86,2.73-1.3,2.52-1.28,4.74-2.47,6.97-3.76-1.71.78-3.44,1.54-5.2,2.27-1.73.82-3.04,1.84-4.5,2.79Z"/>
    <path class="cls-1" d="M69.92,18.86c-.62.36-1.21.71-1.81,1.05,2.54-1.15,5.05-2.32,7.53-3.53,4.02-2.11,8.06-4.2,12-6.45.45-.25.91-.49,1.35-.73-7.75,3.35-15.5,6.61-21.66,10.37-.11.07-.24.15-.36.22,3.11-1.39,6.17-2.82,9.2-4.28-2.08,1.11-4.17,2.23-6.26,3.35h0Z"/>
    <path class="cls-1" d="M83.21,10.11c.23-.1.45-.19.68-.29.25-.14.49-.28.73-.42l-.48.18-.94.52h0Z"/>
    <path class="cls-1" d="M75.62,11.03l-.09.03c-.72.36-1.46.72-2.19,1.09-.99.59-2.02,1.18-3.1,1.75,1.99-.95,3.95-1.92,5.39-2.87Z"/>
    <path class="cls-1" d="M68.29,11.97c-.23.1-.7.3-.94.4l-.37.32.67-.27.63-.45h0Z"/>
    <path class="cls-1" d="M55.01,19.04c4.04-2.03,7.8-3.98,11.51-5.94.16-.13.32-.28.48-.41-2.6,1.05-5.13,2.24-7.32,3.66-.43.28-1.04.8-1.5,1-2.19,1-4.2,2.12-6.23,3.22.98-.49,1.97-.98,2.99-1.49l.09-.04h0Z"/>
  </g>
  <g>
    <path class="cls-1" d="M11.16,60.76h-.36v.09c.13-.03.24-.05.36-.09Z"/>
    <path class="cls-1" d="M11.51,59.75h-.12s.02.04.02.07c.03-.03.05-.04.09-.07h0Z"/>
    <path class="cls-1" d="M10.8,60.85c.03.31.18.62,0,.92h-.79c-.2.17,0,.34,0,.51-.2,0-.39,0-.39.09-.13.22.08.37.47.42.86-.95,3.04-1.29.72-1.95h0Z"/>
    <path class="cls-1" d="M12.39,60.16h-1.04c-.11.19-.26.39-.15.58.54-.14.88-.3,1.2-.58Z"/>
    <path class="cls-1" d="M93.39,59.8c0-.05.02-.08.2,0h-.2c0,.05,0,.12-.08.15.7-.1,1.5-.19,2.29-.22.1-.09.2-.18.29-.27-1.95.05-3.88.05-5.48.5,1.13,0,1.9-.15,2.98-.16Z"/>
    <path class="cls-1" d="M96.05,58.95h.2c-.18-.08-.2-.05-.2,0Z"/>
    <path class="cls-1" d="M61.39,60.86c-1.2.07-2.25.36-3.31.65,2.26-.24,4.58-.36,6.3-.68-.99.02-1.98.03-2.98.03h0Z"/>
    <path class="cls-1" d="M52.78,62.63c1.48.16,2.71-.05,3.88-.34-1.19.08-2.37.15-3.55.22-.11.04-.22.08-.33.13h0Z"/>
    <path class="cls-1" d="M54.42,62.1c1.36,0,2.51-.29,3.64-.59-1.28.14-2.53.31-3.64.59Z"/>
    <path class="cls-1" d="M81.34,54.34c.89-.24,1.44-.35,1.74-.38.13-.12.31-.26.56-.44h-.16c-.92.16-1.86.29-2.8.41-.38.1-.76.22-1.06.36.57.03,1.15.04,1.72.04Z"/>
    <path class="cls-1" d="M83.08,53.96c-1.16,1.01,1.21-.1,0,0h0Z"/>
    <path class="cls-1" d="M77.3,59.26h-.13c-.13.02-.27.03-.4.06.18-.02.36-.04.54-.06Z"/>
    <path class="cls-1" d="M66.24,56.87c.79-.03,1.57-.1,2.34-.17-1.59.09-3.2.18-4.53.43.2,0,.4.09.6.09.39-.17.99-.34,1.59-.34h0Z"/>
    <path class="cls-1" d="M83.5,58.48c-2.16.22-4.28.48-6.33.79-4.17.03-8.19.23-11.81.92-3.18.67-8.74.51-11.92,1.86.34.03.67.05.98.05-.46.11-.9.25-1.31.4-5.25.29-10.4.48-15.76.48-.79,0-1.39.25-2.19.25-.8,0-1.6.03-2.38.05,0,.02,0,.03.03.05-3.28.1-6.49.28-9.89.55-1.59.09-3.18,0-4.77,0-.6,0-.6-.34-.99-.42-1.59-.42-2.78-.76-4.57-.93v-.25c-.28.03-.52.03-.72,0,.86-.95,3.04-1.29.72-1.95h0c.13-.03.24-.06.35-.09h.04c.54-.15.87-.31,1.2-.59h-1.04c.06-.12.11-.23.07-.35.03-.03.06-.04.09-.07h.29c.05-.07.09-.13.12-.2.91-.36,2.35-.55,2.07-.91-.21-.18-.88-.03-1.63.09-.04-.03-.1-.06-.15-.09.99-.09,0-.59.6-.67.79,0,1.59-.09,2.38-.09,3.23,0,5.97-.09,9.14-.34.14,0,.28-.02.42-.03,1.54-.1,2.99-.12,4.5-.06-.1.06-.2.11-.3.16,1.21.05,2.43.07,3.64-.05,2.98-.34,5.96-.67,9.14-.76,3.33-.07,6.54-.24,9.92-.53-1.38.19-2.76.36-4.18.41-.63,0-1.27-.02-1.88,0,.63.03,1.27.02,1.88,0,2.45.03,4.96.14,6.85-.66.21.07.21.16.4.16,1.39,0,2.79.09,3.97-.25,0-.09.6-.09.4-.25,1.2-.09,2.58-.09,3.78-.25.52-.05,1.03-.22,1.54-.41,4.27-.45,8.48-.91,13.08-1.34,1.14-.08,2.46-.09,3.62-.09-1.7.29-3.46.52-5.23.73-1.72-.06-3.38-.06-4.74.37-.31.08-.63.16-.95.22,1.92-.19,3.82-.38,5.69-.6,1.02.03,2.06.1,3.09.1-.02,0-.04,0-.06.02-.8.11-1.62.21-2.43.31-1.54-.05-3.01-.06-4.28.24-.16.03-.31.08-.46.13-.31.08-.63.16-.95.22,1.18-.11,2.36-.23,3.53-.35.72-.08,1.45-.16,2.16-.24.45.02.91.03,1.37.05-.04.02-.1.04-.14.07-.4.09-1.51,1.08-.92,1.33,3.06-.02,7.35-.42,7.35-.34.2.34-5.05.78-4.85.86.29.03.59.07.88.1-.28.07-.55.14-.8.22-.6.09-1.39,0-1.79.17-1.39.51-2.98.34-4.57.67-.99.25-2.19.59-3.38.93,0,.17-.6.09-.4.25-1.13,0-2.42,0-2.9.49-.03,0-.05,0-.08.02-.08,0-.19.03-.31.07-1.87-.09-3.17.38-4.86.71-.58.04-1.17.07-1.79.07.4,0,.99.09,1.39,0,.13-.03.26-.04.39-.07,1.51-.11,2.95-.34,4.38-.52.12-.05.3-.13.48-.19.11,0,.21,0,.31.02.03-.03.05-.07.08-.1,1.38-.24,2.92-.33,4.09-.58,2.21-.29,4.55-.15,6.8-.1-1.12.14-2.22.29-3.3.46,1.36-.15,2.63-.29,3.88-.45h1.77c-.38-.03-.74-.07-1.11-.09.74-.1,1.47-.2,2.2-.31,3.98-.4,8.1-.61,12.13-.47-.08.1-.17.21-.27.31-1.95.05-3.88.05-5.47.5,1.13,0,1.9-.15,2.98-.16,0,.05,0,.12-.08.15.7-.1,1.5-.19,2.29-.22-.25.22-.54.43-.81.66-.4.17-.99.17-1.59.25-2.58.15-5.01.1-7.55.31-2.26-.03-4.52-.06-6.74-.05,2.21-.24,4.22-.48,6.2-.79h0ZM16.83,60.69c.21-.03.41-.08.63-.12-.04-.02-.06-.03-.1-.06-.2,0-.38.08-.53.18ZM21.47,60.77c-1.37-.15-3.16.05-4.89.18,0,.03-.02.04-.02.07,1.46.08,3.25-.13,4.91-.24h0ZM26.93,62.52s-.02-.02-.04-.03v.03s.02,0,.03,0h0ZM51.14,59.83c-1.59.42-3.58.42-5.56.59-.6,0-1.19.34-1.98.34-.99.09-1.59.25-2.38.34l.6.17c-1.39-.09-2.19.42-3.58.25,0,.09-.2.25-.39.25-.99.09-1.99-.09-2.79.09-.99.09-1.98.09-2.78.25-.2,0-.6.25-.99.34-.48.03-.97.05-1.46.08.02.03.04.04.06.07.39,0,.79,0,1.2-.06,1.2-.17,2.58-.34,3.78-.42,2.98-.17,5.76-.51,8.55-.85.6-.09,1.2-.25,1.79-.34,1.79-.34,3.97-.25,5.17-.85.2-.09.6-.09.79-.25h-.02ZM53.36,56.16c-2.1.36-4.42.53-6.39.45-1.59,0-6.16.51-5.37,1.52,1.96-1.84,13.14-.03,11.76-1.97ZM69.94,54.61c-.83.13-1.63.25-2.58.25.86-.09,1.72-.17,2.58-.25ZM61.47,58.05c2.58-.59,5.37-.67,7.95-1.01,1.99-.25,4.17.17,5.97-.42v-.25l-.2.09c-.7-.05-1.26-.18-1.85-.26.04,0,.07-.02.1-.03-.06,0-.12,0-.18.02-.39-.04-.79-.05-1.26,0-.21.04-.43.08-.65.12-2.48.15-5.05.28-7.3.81-1.39.25-2.58.67-3.97.93.39,0,.99.09,1.39,0h0Z"/>
    <path class="cls-1" d="M79.84,58.28c.86-.1,1.72-.2,2.6-.29.67-.1,1.34-.22,2.01-.34,3.19-.45,6.92-.3,10.34-.5.1-.25.12-.5,0-.76-3.72-.28-7.44.18-11.16.03-.03,0-.06.02-.09.03-1.59.51-4.17.34-6.16.76-1.98.51-3.97.67-5.96,1.1,2.88,0,5.6-.18,8.43-.03h0Z"/>
    <path class="cls-1" d="M56.66,62.29c.78-.05,1.56-.1,2.35-.16,2.2-.2,4.14-.45,6.13-.76-1.46.04-2.93.07-4.41.07-1.48.09-2.74.52-4.07.85Z"/>
    <path class="cls-1" d="M66.76,61.12c-.54.09-1.08.17-1.62.26,2.17-.07,4.31-.16,6.47-.28,3.53-.35,7.05-.64,10.58-1.09.4-.04.79-.09,1.2-.11-6.56-.1-13.11-.19-18.68.87-.1.03-.21.04-.32.06,2.65-.06,5.28-.18,7.89-.31-1.84.18-3.67.37-5.51.61h0Z"/>
    <path class="cls-1" d="M79,58.38c.2,0,.38,0,.57,0,.22-.03.44-.06.66-.09-.13,0-.27-.02-.4-.03-.28.03-.55.07-.83.1Z"/>
    <path class="cls-1" d="M73.34,56.2s-.04,0-.07,0c-.63.05-1.27.09-1.91.13-.89.16-1.82.29-2.77.38,1.72-.1,3.42-.2,4.75-.5Z"/>
    <path class="cls-1" d="M67.83,54.16h-.79c-.13.05-.24.1-.36.16.19,0,.38,0,.56.02l.6-.17h0Z"/>
    <path class="cls-1" d="M56.1,55.53c3.52-.33,6.82-.67,10.1-1.02.16-.06.32-.13.47-.19-2.2-.05-4.38.06-6.39.53-.39.09-.99.34-1.39.34-1.88.08-3.67.35-5.46.6.86-.07,1.71-.15,2.6-.23h.07v-.02Z"/>
  </g>
  <g>
    <path class="cls-1" d="M2.63,75.28l-.42-.2-.03.08c.16.04.31.08.44.12Z"/>
    <path class="cls-1" d="M3.49,74.56l-.13-.06s0,.05,0,.07h.13s0,0,0,0Z"/>
    <path class="cls-1" d="M2.18,75.17c-.11.29-.08.65-.42.83-.23-.11-.68-.33-.92-.44-.31.04-.15.3-.23.46-.23-.11-.46-.22-.49-.14-.25.13-.07.38.35.64,1.42-.38,4.09.5,1.72-1.35h0Z"/>
    <path class="cls-1" d="M4.32,75.43l-1.21-.57c-.21.12-.47.21-.43.44.69.17,1.15.21,1.65.13h0Z"/>
    <path class="cls-1" d="M97.44,121s.06-.06.23.11c-.08-.04-.15-.08-.23-.11-.02.04-.05.11-.16.09.84.32,1.8.72,2.7,1.15.16-.02.32-.03.46-.07-2.24-1.1-4.45-2.24-6.48-2.76,1.28.66,2.24.98,3.47,1.6Z"/>
    <path class="cls-1" d="M100.87,121.8c.08.04.15.07.23.11-.16-.17-.2-.16-.23-.11Z"/>
    <path class="cls-1" d="M60.41,103.45c-1.41-.62-2.75-.96-4.11-1.32,2.7,1.07,5.42,2.29,7.54,2.99-1.14-.55-2.29-1.12-3.43-1.67Z"/>
    <path class="cls-1" d="M49.71,100.13c1.62.98,3.13,1.49,4.61,1.9-1.4-.61-2.78-1.22-4.17-1.82l-.44-.07Z"/>
    <path class="cls-1" d="M51.85,100.59c1.56.78,3.01,1.17,4.46,1.55-1.53-.61-3.05-1.15-4.46-1.55Z"/>
    <path class="cls-1" d="M86.34,109.14c1.14.3,1.81.52,2.17.68.21-.02.49-.05.85-.07-.06-.03-.12-.06-.18-.09-1.12-.4-2.26-.82-3.41-1.26-.49-.13-.97-.24-1.39-.3.64.36,1.3.71,1.95,1.04h0Z"/>
    <path class="cls-1" d="M88.52,109.82c-1.82.22,1.43.6,0,0h0Z"/>
    <path class="cls-1" d="M79.36,111.16l-.15-.08-.48-.18c.22.09.42.17.64.26h0Z"/>
    <path class="cls-1" d="M67.85,102.67c.91.42,1.85.82,2.77,1.18-1.87-.83-3.75-1.68-5.39-2.22.23.11.41.3.64.42.54.08,1.3.27,1.99.61h0Z"/>
    <path class="cls-1" d="M86.82,114.06c-2.57-1.07-5.12-2.06-7.61-2.97-4.77-2.38-9.47-4.52-13.93-5.97-3.95-1.22-10.25-4.53-14.54-5.14.38.23.74.42,1.1.61-.59-.16-1.16-.29-1.7-.39-6.16-2.71-12.16-5.45-18.32-8.45-.91-.45-1.72-.55-2.63-.99-.93-.44-1.85-.86-2.77-1.29-.02.02-.01.04,0,.07-3.81-1.72-7.6-3.36-11.64-4.98-1.87-.8-3.66-1.76-5.5-2.63-.68-.33-.53-.63-.95-.92-1.64-1.26-2.86-2.21-4.86-3.34,0,0,.08-.16.12-.23-.33-.12-.61-.26-.84-.4,1.42-.38,4.09.5,1.72-1.35h0c.16.04.31.08.44.12l.05.02h0c.69.16,1.15.19,1.65.12l-1.21-.57c.13-.07.23-.16.25-.28h.13c.18.08.33.15.33.15.09-.03.16-.07.22-.11,1.22.17,2.97.79,2.81.33-.17-.28-1-.51-1.93-.82-.04-.06-.09-.11-.14-.16,1.19.47.27-.53,1-.28.92.44,1.88.8,2.79,1.23,3.75,1.78,6.94,3.22,10.73,4.74l.5.21c1.82.77,3.52,1.56,5.23,2.46-.14,0-.28-.01-.43-.02,1.38.72,2.77,1.42,4.23,1.98,3.59,1.36,7.18,2.73,10.88,4.45,3.87,1.81,7.64,3.47,11.65,5.14-1.67-.62-3.34-1.24-5-1.99-.73-.36-1.45-.73-2.17-1.06.72.38,1.44.74,2.17,1.06,2.8,1.42,5.64,2.93,8.18,3.3.2.18.16.25.39.37,1.6.79,3.15,1.66,4.68,2.04.04-.07.72.27.57,0,1.41.6,3,1.4,4.45,1.93.62.25,1.29.4,1.97.52,5.11,2.04,10.15,4.08,15.61,6.36,1.35.59,2.85,1.36,4.17,2.02-2.08-.74-4.2-1.55-6.33-2.4-1.95-1.06-3.84-2.01-5.6-2.41-.4-.11-.8-.23-1.19-.35,2.28.93,4.56,1.85,6.8,2.75,1.15.62,2.31,1.28,3.48,1.87l-.07-.02c-.97-.37-1.95-.75-2.93-1.13-1.73-.93-3.42-1.8-5.01-2.25-.2-.06-.4-.11-.59-.15-.4-.11-.8-.23-1.19-.35,1.41.58,2.81,1.15,4.21,1.72.87.35,1.72.69,2.59,1.04.51.28,1.02.56,1.54.84-.06-.01-.13-.02-.19-.02-.49-.15-2.25.08-1.69.65,1.75.87,3.9,1.85,5.61,2.62.85.39,1.59.71,2.12.95s.84.39.83.41c.07.41-6.14-2.24-5.95-2.05.32.2.64.4.96.6-.35-.1-.7-.19-1.02-.27-.72-.27-1.59-.81-2.13-.89-1.83-.36-3.57-1.43-5.54-2.05-1.26-.35-2.78-.73-4.31-1.12-.08.15-.72-.27-.58,0-1.28-.64-2.77-1.39-3.55-1.23l-.1-.03c-.09-.04-.23-.09-.39-.12-2.09-1.15-3.8-1.48-5.89-2.16-.69-.29-1.38-.61-2.08-.96.46.23,1.1.65,1.59.79.16.05.33.1.49.16,1.78.76,3.53,1.39,5.26,2.04.16.03.41.06.64.11l.35.2s.1-.03.14-.04c1.68.57,3.5,1.39,4.96,1.84,2.66,1.01,5.28,2.49,7.82,3.84-1.35-.52-2.68-1.02-3.99-1.5,1.62.64,3.15,1.26,4.64,1.84.22.12.43.22.65.34l1.36.7c-.41-.24-.81-.49-1.22-.72.89.34,1.78.67,2.65,1,4.74,1.96,9.52,4.18,14.05,6.66-.14.04-.3.08-.45.11-2.24-1.1-4.45-2.24-6.48-2.76,1.28.65,2.23.97,3.47,1.6-.02.05-.05.11-.16.09.84.32,1.8.72,2.7,1.15-.39.04-.82.07-1.25.1-.53-.08-1.21-.43-1.93-.71-3.01-1.38-5.75-2.83-8.75-4.13-2.56-1.34-5.12-2.69-7.67-3.95,2.63,1.06,5.05,2.02,7.45,2.89h-.04ZM9.22,78.33c.25.08.51.15.77.24l-.08-.1c-.22-.11-.47-.14-.7-.13h0ZM14.56,80.96c-1.51-.89-3.68-1.7-5.74-2.53-.03.01-.04.03-.05.05,1.65.87,3.82,1.67,5.79,2.48ZM20.03,85.54l-.02-.04v.04s.02,0,.02,0h0ZM49.14,96.7c-2.02-.52-4.31-1.65-6.67-2.61-.69-.33-1.53-.37-2.44-.81-1.18-.49-1.95-.67-2.9-1.04l.6.48c-1.56-.86-2.71-.84-4.23-1.77-.04.07-.35.12-.57,0-1.18-.48-2.25-1.19-3.24-1.48-1.18-.48-2.32-1.03-3.32-1.33-.23-.11-.8-.1-1.3-.25l-1.71-.74.04.09c.46.22.92.44,1.41.61,1.45.51,3.13,1.14,4.54,1.72,3.51,1.51,6.86,2.76,10.22,4.03.72.26,1.49.45,2.21.71,2.21.71,4.68,2.01,6.33,2.16.27.04.72.26,1.03.23h0ZM53.42,94.69c-2.57-.87-5.32-2.04-7.56-3.22-1.83-.9-7.33-3.02-6.88-1.67,3.13-.54,15.12,7.38,14.44,4.88h0ZM73.16,102.79c-1.01-.36-2-.71-3.08-1.26l3.08,1.26ZM61.82,101c3.24.94,6.46,2.47,9.58,3.65,2.39.92,4.69,2.55,7.02,3.06l.12-.22-.27-.04c-.77-.45-1.35-.89-1.98-1.29l.13.04-.21-.09c-.43-.27-.89-.5-1.45-.72-.26-.09-.53-.18-.8-.27-2.91-1.3-5.92-2.65-8.74-3.47-1.71-.57-3.28-.88-4.99-1.45.46.23,1.1.65,1.59.79h0Z"/>
    <path class="cls-1" d="M82.73,111.75c1.03.42,2.07.84,3.1,1.25.82.29,1.63.58,2.46.87,3.85,1.46,8.03,3.77,12.03,5.59.23-.16.37-.38.36-.68-4.1-2.42-8.56-4.2-12.74-6.49l-.11-.02c-2.06-.48-4.93-2.12-7.4-2.9-2.51-.7-4.86-1.7-7.34-2.46,3.28,1.65,6.49,3.07,9.65,4.84h0Z"/>
    <path class="cls-1" d="M54.31,102.02c.92.4,1.84.79,2.76,1.19,2.61,1.07,4.95,1.96,7.37,2.82-1.69-.8-3.39-1.61-5.08-2.45-1.74-.77-3.38-1.1-5.06-1.57h0Z"/>
    <path class="cls-1" d="M66.43,106.74c-.67-.24-1.32-.46-1.97-.7,2.51,1.18,5.02,2.32,7.52,3.46,4.19,1.73,8.37,3.5,12.61,5.15.48.2.95.4,1.42.59-7.44-3.89-14.87-7.75-21.75-9.99-.13-.04-.27-.08-.4-.13,3.06,1.47,6.12,2.86,9.17,4.24-2.18-.9-4.38-1.78-6.59-2.63h0Z"/>
    <path class="cls-1" d="M81.73,111.37c.22.12.43.23.65.34.26.1.53.2.79.31l-.44-.26-1-.4h0Z"/>
    <path class="cls-1" d="M76.3,106.15l-.08-.05c-.74-.33-1.49-.66-2.25-.99-1.09-.38-2.21-.79-3.35-1.25,2.01.9,4.01,1.8,5.68,2.29h0Z"/>
    <path class="cls-1" d="M70.96,101.18c-.23-.11-.69-.34-.92-.46l-.48-.07.63.34.76.2h0Z"/>
    <path class="cls-1" d="M56.86,95.68c4.2,1.69,8.15,3.29,12.07,4.86.21.04.42.07.64.1-2.49-1.31-5.05-2.46-7.58-3.2-.49-.15-1.3-.27-1.76-.5-2.2-1-4.39-1.78-6.55-2.58,1.02.42,2.04.84,3.1,1.27l.08.03h0Z"/>
  </g>
</svg>