<?xml version="1.0" encoding="UTF-8"?>
<svg id="Layer_1" data-name="Layer 1" xmlns="http://www.w3.org/2000/svg" viewBox="0 0 107.6 224.27">
  <defs>
    <style>
      .cls-1 {
        fill: #f97316;
      }
    </style>
  </defs>
  <g>
    <path class="cls-1" d="M1.07,67.43c-.23.13-.45.25-.45.25l.05.08c.14-.12.28-.23.4-.33Z"/>
    <path class="cls-1" d="M.94,66.15l-.14.08s.04.04.07.05c.02-.04.05-.09.08-.13Z"/>
    <path class="cls-1" d="M.67,67.76c.21.29.57.5.51.94-.25.14-.75.42-1.01.56-.16.31.19.34.28.51-.25.14-.5.28-.46.37-.04.32.31.31.83.1.55-1.56,3.12-3.44-.17-2.48Z"/>
    <path class="cls-1" d="M2.29,65.96l-1.32.74c-.03.27-.11.57.14.69.6-.53.93-.92,1.18-1.43Z"/>
    <path class="cls-1" d="M102.01,4.39c-.03-.05-.03-.09.24-.16-.08.06-.16.11-.24.16.03.05.09.11,0,.21.77-.65,1.68-1.39,2.61-2.05.06-.17.12-.34.17-.49-2.3,1.61-4.64,3.18-6.26,4.9,1.36-.9,2.19-1.67,3.48-2.56Z"/>
    <path class="cls-1" d="M104.64,1.44c.08-.06.16-.11.24-.16-.26.07-.27.11-.24.16Z"/>
    <path class="cls-1" d="M63.79,30.6c-1.43.99-2.54,2.09-3.68,3.18,2.63-1.97,5.41-3.86,7.32-5.5-1.2.79-2.42,1.56-3.64,2.33Z"/>
    <path class="cls-1" d="M54.25,38.9c1.93-.97,3.31-2.11,4.58-3.29-1.42.98-2.84,1.94-4.25,2.91l-.34.38Z"/>
    <path class="cls-1" d="M55.97,37.13c1.68-1.03,2.92-2.19,4.14-3.35-1.49,1.1-2.93,2.23-4.14,3.35Z"/>
    <path class="cls-1" d="M84.01,8.72c.92-.94,1.51-1.47,1.86-1.74.09-.22.21-.5.39-.87-.06.04-.13.08-.19.13-1.01.88-2.05,1.75-3.11,2.62-.4.41-.77.81-1.06,1.19.71-.43,1.42-.87,2.11-1.32Z"/>
    <path class="cls-1" d="M85.87,6.98c-.76,1.9,1.38-1.05,0,0h0Z"/>
    <path class="cls-1" d="M82.23,16.68l-.17.11-.45.37c.21-.16.41-.32.61-.48Z"/>
    <path class="cls-1" d="M67.27,22.96c.94-.64,1.86-1.3,2.75-1.98-1.89,1.32-3.79,2.64-5.26,3.91.24-.15.54-.22.78-.38.38-.47,1-1.1,1.73-1.56Z"/>
    <path class="cls-1" d="M89.24,11.02c-2.47,1.92-4.87,3.86-7.18,5.76-5.04,3.31-9.82,6.63-13.82,10.09-3.47,3.13-10.42,7.2-13.53,10.95.44-.22.86-.46,1.25-.7-.51.47-.97.93-1.38,1.4-6.32,4.26-12.61,8.3-19.31,12.26-.99.59-1.59,1.28-2.58,1.86-1,.61-1.98,1.2-2.96,1.8,0,.02.03.03.07.03-4.04,2.5-7.98,5.01-12.1,7.73-1.95,1.23-4.01,2.29-6.02,3.42-.75.43-.95.08-1.5.28-2.25.71-3.95,1.21-6.31,2.3,0,0-.1-.17-.14-.26-.33.22-.64.39-.91.51.55-1.56,3.11-3.44-.17-2.48h0c.14-.12.27-.23.4-.34l.05-.03h0c.6-.53.93-.93,1.18-1.44l-1.32.74c.02-.17,0-.32-.11-.41l.08-.13c.2-.11.36-.2.36-.2.03-.1.04-.19.03-.28.95-1.01,2.65-2.22,2.1-2.37-.37-.03-1.12.6-2.01,1.24-.08,0-.16,0-.24.02,1.21-.78-.33-.6.37-1.1,1-.56,1.95-1.21,2.95-1.77,4.07-2.29,7.44-4.33,11.28-6.87l.51-.33c1.86-1.22,3.67-2.29,5.59-3.32-.09.13-.18.25-.28.38,1.55-.82,3.07-1.7,4.51-2.71,3.52-2.51,7.01-5.05,10.9-7.48,4.08-2.54,7.93-5.12,11.92-7.94-1.58,1.23-3.18,2.43-4.9,3.55-.79.47-1.57.94-2.32,1.42.8-.45,1.57-.93,2.32-1.42,3.04-1.8,6.2-3.59,8.03-5.81.29-.09.34,0,.59-.15,1.71-1.05,3.46-2.03,4.71-3.27-.05-.08.68-.54.33-.55,1.4-1,3.11-2.05,4.46-3.14.6-.45,1.12-1.01,1.63-1.6,4.9-3.74,9.76-7.44,15.02-11.46,1.33-.97,2.91-2.02,4.3-2.93-1.87,1.62-3.83,3.22-5.85,4.82-2.13,1.29-4.12,2.59-5.5,4.06-.34.32-.68.64-1.01.96,2.21-1.67,4.4-3.34,6.51-5.02,1.25-.76,2.56-1.52,3.79-2.33l-.06.07c-.9.74-1.81,1.47-2.74,2.2-1.89,1.15-3.68,2.3-5.02,3.58-.17.16-.33.32-.48.49-.34.32-.68.64-1.01.96,1.36-1.04,2.71-2.07,4.05-3.09.82-.64,1.65-1.29,2.47-1.93.56-.34,1.12-.68,1.68-1.01l-.13.17c-.43.39-1.15,2.23-.27,2.01,1.85-1.2,3.99-2.77,5.69-4,.85-.62,1.59-1.16,2.11-1.54.53-.38.84-.61.86-.58.46.18-5.59,4.74-5.29,4.67.38-.2.75-.4,1.12-.6-.29.29-.58.57-.83.85-.67.55-1.68,1.1-2.06,1.57-1.36,1.58-3.4,2.67-5.11,4.24-1.05,1.02-2.29,2.28-3.53,3.54.11.16-.68.55-.33.56-1.36.88-2.95,1.88-3.23,2.73l-.09.08c-.1.06-.22.18-.34.31-2.34,1.35-3.63,2.83-5.51,4.44-.69.49-1.4.97-2.14,1.44.49-.3,1.27-.68,1.71-1.07l.44-.37c1.78-1.26,3.4-2.6,5.04-3.89.11-.14.29-.36.47-.55l.39-.22c0-.05.02-.11.04-.16,1.53-1.29,3.36-2.59,4.63-3.74,2.51-1.99,5.44-3.7,8.2-5.42-1.27,1.02-2.51,2.03-3.72,3.04,1.54-1.21,3-2.36,4.42-3.48.23-.15.46-.3.69-.45l1.44-.95c-.47.27-.93.53-1.39.79.83-.69,1.65-1.37,2.46-2.04,4.57-3.53,9.38-7.02,14.3-10.14-.03.16-.07.33-.13.51-2.3,1.61-4.63,3.18-6.26,4.88,1.35-.9,2.19-1.66,3.48-2.55.03.05.09.11,0,.21.77-.65,1.68-1.39,2.61-2.05-.16.41-.36.85-.56,1.28-.37.48-1.08.96-1.75,1.53-3.01,2.21-5.96,4.11-8.91,6.33-2.75,1.77-5.5,3.54-8.2,5.28,2.53-1.96,4.82-3.8,7.01-5.66ZM8.19,63.35c.23-.18.47-.37.72-.57h-.15c-.24.14-.44.36-.57.57ZM14.09,60.11c-1.8.84-3.96,2.3-6.07,3.67,0,.03,0,.06.02.08,1.88-.96,4.03-2.43,6.05-3.75ZM21.96,57.95h-.06s.03.03.03.03l.03-.03ZM50.53,37.37c-1.71,1.61-4.16,3.12-6.53,4.76-.74.44-1.28,1.22-2.26,1.82-1.18.83-1.82,1.44-2.76,2.11l.84-.27c-1.78.95-2.47,2.04-4.31,2.9.05.08-.1.4-.35.55-1.19.82-2.53,1.38-3.42,2.13-1.19.81-2.43,1.54-3.33,2.29-.25.15-.6.69-1.05,1.07l-1.78,1.14.11.02c.5-.28,1-.58,1.46-.93,1.4-1.04,3.03-2.23,4.48-3.19,3.63-2.35,6.89-4.75,10.15-7.16.69-.53,1.33-1.14,2.02-1.67,2.02-1.66,4.78-3.23,5.89-4.71.2-.23.69-.53.83-.85ZM51.06,32.08c-2.36,1.93-5.13,3.84-7.61,5.24-1.97,1.18-7.32,5.08-5.73,5.5,1.36-3.27,16.22-9.85,13.34-10.74ZM70.37,17.9c-.93.78-1.84,1.51-2.99,2.24l2.99-2.24ZM62.16,27.78c2.81-2.55,6.14-4.79,9.09-7.11,2.26-1.8,5.19-3.08,6.98-5.05l-.16-.25-.19.24c-.88.5-1.65.8-2.4,1.19l.11-.1-.21.15c-.5.26-1,.56-1.53.99-.24.2-.48.41-.72.62-2.92,2.08-5.98,4.17-8.39,6.43-1.55,1.31-2.75,2.64-4.3,3.95.49-.3,1.27-.68,1.71-1.06Z"/>
    <path class="cls-1" d="M84.68,13.73c.98-.77,1.97-1.55,2.96-2.33.74-.64,1.47-1.28,2.21-1.92,3.56-2.97,8.14-5.8,12.11-8.76-.04-.32-.19-.57-.51-.73-4.63,2.73-8.81,6.14-13.39,8.95l-.09.1c-1.6,1.75-4.82,3.63-6.97,5.59-2.09,2.06-4.4,3.77-6.55,5.73,3.5-2.23,6.69-4.55,10.22-6.63Z"/>
    <path class="cls-1" d="M58.83,35.62c.93-.64,1.86-1.29,2.8-1.94,2.57-1.88,4.82-3.61,7.07-5.46-1.76,1.18-3.55,2.33-5.37,3.46-1.77,1.23-3.05,2.61-4.5,3.94Z"/>
    <path class="cls-1" d="M70.52,26.71c-.62.51-1.22,1.01-1.82,1.5,2.61-1.74,5.19-3.5,7.73-5.29,4.09-3.08,8.2-6.15,12.18-9.38.46-.36.92-.71,1.37-1.06-8.01,5.12-16.03,10.14-22.2,15.47-.11.1-.24.21-.36.31,3.21-2.11,6.35-4.25,9.45-6.43-2.11,1.62-4.23,3.24-6.36,4.87Z"/>
    <path class="cls-1" d="M83.73,14.48c.24-.15.47-.29.7-.44.25-.2.5-.4.74-.6l-.5.29-.95.75Z"/>
    <path class="cls-1" d="M75.49,16.8l-.1.05c-.74.53-1.49,1.07-2.24,1.61-.99.84-2.03,1.69-3.13,2.52,2.04-1.42,4.04-2.85,5.47-4.18Z"/>
    <path class="cls-1" d="M67.53,19.09c-.24.15-.72.46-.97.61l-.35.43.69-.42.62-.62Z"/>
    <path class="cls-1" d="M54.04,29.39c4.12-2.99,7.95-5.85,11.72-8.71.15-.18.31-.37.46-.55-2.7,1.64-5.3,3.42-7.48,5.41-.43.39-1.01,1.09-1.49,1.39-2.25,1.51-4.29,3.12-6.34,4.72,1-.72,2.01-1.45,3.05-2.2l.09-.06Z"/>
  </g>
  <g>
    <path class="cls-1" d="M11.09,105.4h-.4s0,.06,0,.1c.14-.03.27-.06.4-.1Z"/>
    <path class="cls-1" d="M11.48,104.23h-.13s.02.05.02.08c.03-.03.06-.05.1-.08Z"/>
    <path class="cls-1" d="M10.69,105.5c.03.36.2.72,0,1.07h-.89c-.22.2,0,.39,0,.59-.22,0-.44,0-.44.1-.15.26.09.43.53.49.96-1.1,3.4-1.49.81-2.25Z"/>
    <path class="cls-1" d="M12.47,104.71h-1.17c-.12.22-.29.45-.17.67.61-.16.98-.35,1.34-.67Z"/>
    <path class="cls-1" d="M103.18,104.29c0-.06.02-.09.22,0-.08,0-.15,0-.22,0,0,.06.01.14-.09.17.78-.11,1.68-.22,2.56-.25.11-.1.22-.21.33-.31-2.18.06-4.35.06-6.14.58,1.26,0,2.13-.17,3.34-.19Z"/>
    <path class="cls-1" d="M106.15,103.31c.08,0,.15,0,.22,0-.2-.09-.22-.06-.22,0Z"/>
    <path class="cls-1" d="M67.34,105.52c-1.34.08-2.52.42-3.71.75,2.53-.28,5.13-.42,7.06-.79-1.11.02-2.22.04-3.34.04Z"/>
    <path class="cls-1" d="M57.7,107.56c1.66.18,3.03-.06,4.34-.39-1.33.09-2.65.17-3.97.25-.12.05-.25.09-.37.15Z"/>
    <path class="cls-1" d="M59.54,106.95c1.52,0,2.81-.33,4.08-.68-1.43.16-2.83.36-4.08.68Z"/>
    <path class="cls-1" d="M89.68,97.97c1-.28,1.61-.41,1.95-.44.15-.14.35-.3.63-.51h-.18c-1.03.18-2.08.34-3.14.48-.43.12-.85.26-1.19.42.64.03,1.29.05,1.93.05Z"/>
    <path class="cls-1" d="M91.63,97.53c-1.3,1.17,1.35-.12,0,0h0Z"/>
    <path class="cls-1" d="M85.16,103.67c-.05,0-.1,0-.15,0-.15.02-.3.04-.45.07.2-.02.4-.05.6-.07Z"/>
    <path class="cls-1" d="M72.77,100.9c.88-.04,1.76-.11,2.62-.2-1.78.1-3.58.21-5.07.5.22,0,.45.1.67.1.44-.2,1.11-.39,1.78-.39Z"/>
    <path class="cls-1" d="M92.1,102.76c-2.42.25-4.79.56-7.09.91-4.67.04-9.17.27-13.22,1.07-3.56.78-9.79.59-13.35,2.15.38.04.75.06,1.1.06-.52.13-1.01.29-1.47.46-5.88.34-11.65.55-17.65.55-.89,0-1.56.29-2.45.29-.9.01-1.79.03-2.67.06,0,.02,0,.04.03.06-3.67.12-7.27.32-11.07.64-1.78.1-3.56,0-5.34,0-.67,0-.67-.39-1.11-.49-1.78-.49-3.11-.88-5.12-1.08v-.29c-.31.03-.58.03-.81,0,.96-1.1,3.4-1.49.81-2.25h0c.14-.03.27-.07.39-.1h.04s0,0,0-.01c.61-.16.97-.35,1.34-.67h-1.17c.07-.14.12-.27.08-.41.03-.03.07-.05.1-.08h.32c.06-.08.1-.15.13-.23,1.02-.42,2.63-.64,2.32-1.05-.24-.21-.98-.03-1.83.1-.05-.04-.11-.07-.17-.1,1.11-.1,0-.68.67-.78.89,0,1.78-.1,2.67-.1,3.62,0,6.68-.1,10.24-.39.16-.01.31-.02.47-.03,1.73-.12,3.35-.14,5.04-.07-.11.07-.22.13-.34.19,1.36.06,2.72.08,4.08-.06,3.34-.39,6.67-.78,10.23-.88,3.73-.08,7.32-.28,11.11-.61-1.55.22-3.09.42-4.68.48-.71-.01-1.42-.02-2.11,0,.71.03,1.42.02,2.11,0,2.74.04,5.56.16,7.67-.76.23.08.23.18.45.18,1.56,0,3.12.1,4.45-.29,0-.1.67-.1.45-.29,1.34-.1,2.89-.1,4.23-.29.58-.06,1.15-.25,1.73-.48,4.78-.52,9.5-1.05,14.65-1.55,1.28-.09,2.75-.1,4.05-.1-1.9.33-3.87.6-5.86.84-1.93-.07-3.78-.07-5.31.43-.35.09-.71.18-1.06.26,2.15-.22,4.28-.44,6.37-.69,1.14.04,2.31.11,3.46.11-.02,0-.04.01-.07.02-.9.13-1.81.24-2.72.36-1.72-.06-3.37-.07-4.79.28-.18.04-.35.09-.52.15-.35.09-.71.18-1.06.26,1.32-.13,2.64-.27,3.95-.41.81-.09,1.62-.18,2.42-.28.5.02,1.02.04,1.53.06-.05.02-.11.05-.16.08-.45.1-1.69,1.25-1.03,1.54,3.43-.02,8.23-.49,8.23-.39.22.39-5.65.9-5.43,1,.33.04.66.08.99.11-.31.08-.62.16-.9.25-.67.1-1.56,0-2,.2-1.56.59-3.34.39-5.12.78-1.11.29-2.45.68-3.78,1.08,0,.2-.67.1-.45.29-1.26,0-2.71,0-3.25.57-.03,0-.06,0-.09.02-.09,0-.21.03-.35.08-2.09-.1-3.55.44-5.44.82-.65.05-1.31.08-2,.08.45,0,1.11.1,1.56,0,.15-.03.29-.05.44-.08,1.69-.13,3.3-.39,4.9-.6.13-.06.34-.15.54-.22.12,0,.23.01.35.02.03-.04.06-.08.09-.11,1.54-.28,3.27-.38,4.58-.67,2.47-.33,5.1-.17,7.62-.11-1.25.16-2.49.34-3.7.53,1.52-.17,2.95-.34,4.34-.52.22,0,.43,0,.64,0h1.34c-.42-.04-.83-.08-1.24-.1.83-.11,1.65-.23,2.46-.36,4.46-.46,9.07-.7,13.58-.54-.09.12-.19.24-.3.36-2.18.06-4.35.06-6.13.58,1.26,0,2.13-.17,3.34-.19,0,.06.01.14-.09.17.78-.11,1.68-.22,2.56-.25-.28.25-.6.5-.91.76-.45.2-1.11.2-1.78.29-2.89.17-5.61.12-8.45.36-2.53-.04-5.06-.07-7.55-.06,2.47-.28,4.73-.56,6.94-.91ZM17.44,105.32c.23-.04.46-.09.7-.14-.04-.02-.07-.04-.11-.07-.22,0-.43.09-.59.21ZM22.64,105.41c-1.53-.17-3.54.06-5.48.21-.01.03-.02.05-.02.08,1.63.09,3.64-.15,5.5-.28ZM28.75,107.44s-.02-.02-.04-.03c0,.02,0,.03,0,.04.01,0,.02,0,.03-.01ZM55.86,104.32c-1.78.49-4.01.49-6.23.68-.67,0-1.33.39-2.22.39-1.11.1-1.78.29-2.67.39l.67.2c-1.56-.1-2.45.49-4.01.29,0,.1-.22.29-.44.29-1.11.1-2.23-.1-3.12.1-1.11.1-2.22.1-3.11.29-.22,0-.67.29-1.11.39-.54.04-1.09.06-1.63.09.02.03.05.05.07.08.44,0,.89,0,1.34-.07,1.34-.2,2.89-.39,4.23-.49,3.34-.2,6.45-.59,9.57-.98.67-.1,1.34-.29,2-.39,2-.39,4.45-.29,5.79-.98.22-.1.67-.1.89-.29ZM58.35,100.08c-2.35.42-4.95.61-7.16.52-1.78,0-6.9.59-6.01,1.76,2.2-2.13,14.71-.04,13.17-2.28ZM76.91,98.29c-.93.15-1.83.29-2.89.29.96-.1,1.93-.2,2.89-.29ZM67.43,102.27c2.89-.68,6.01-.78,8.9-1.17,2.23-.29,4.67.2,6.68-.49v-.29l-.22.1c-.78-.06-1.41-.21-2.07-.3.04,0,.08-.02.11-.03-.07,0-.13.01-.2.02-.44-.05-.89-.06-1.41.01-.24.05-.48.09-.73.14-2.78.17-5.65.32-8.17.94-1.56.29-2.89.78-4.45,1.08.44,0,1.11.1,1.56,0Z"/>
    <path class="cls-1" d="M88,102.53c.96-.12,1.93-.23,2.91-.33.75-.12,1.5-.25,2.25-.39,3.57-.52,7.75-.35,11.58-.58.11-.29.13-.58-.01-.88-4.17-.32-8.33.21-12.5.04-.03.01-.07.02-.1.03-1.78.59-4.67.39-6.9.88-2.22.59-4.45.78-6.67,1.27,3.22,0,6.27-.21,9.44-.03Z"/>
    <path class="cls-1" d="M62.04,107.17c.87-.06,1.75-.12,2.63-.18,2.46-.23,4.64-.52,6.87-.88-1.64.05-3.28.08-4.94.08-1.66.1-3.07.6-4.56.98Z"/>
    <path class="cls-1" d="M73.35,105.82c-.61.1-1.21.2-1.81.3,2.43-.08,4.83-.19,7.24-.32,3.95-.4,7.9-.74,11.85-1.26.45-.05.89-.1,1.34-.13-7.35-.11-14.68-.22-20.92,1.01-.11.03-.24.05-.36.07,2.97-.07,5.91-.21,8.84-.36-2.06.21-4.11.43-6.17.7Z"/>
    <path class="cls-1" d="M87.06,102.65c.22,0,.43,0,.64.01.25-.03.49-.07.74-.1-.15,0-.3-.02-.45-.03-.31.04-.62.08-.93.12Z"/>
    <path class="cls-1" d="M80.72,100.12s-.05,0-.08-.01c-.7.06-1.42.1-2.14.15-1,.18-2.04.33-3.1.44,1.93-.11,3.83-.23,5.32-.58Z"/>
    <path class="cls-1" d="M74.55,97.77h-.89c-.14.06-.27.12-.4.18.21,0,.42.01.63.02l.67-.2Z"/>
    <path class="cls-1" d="M61.42,99.35c3.94-.38,7.64-.78,11.31-1.18.18-.07.36-.15.53-.22-2.46-.06-4.91.07-7.16.61-.44.1-1.11.39-1.56.39-2.11.09-4.11.4-6.11.69.96-.08,1.92-.17,2.91-.27.03,0,.05,0,.08,0Z"/>
  </g>
  <g>
    <path class="cls-1" d="M4.09,158.07c-.22-.14-.44-.28-.44-.28l-.04.09c.17.07.33.13.48.19Z"/>
    <path class="cls-1" d="M5.14,157.35l-.14-.09s-.01.06-.02.08c.05,0,.1,0,.15,0Z"/>
    <path class="cls-1" d="M3.6,157.88c-.16.32-.17.74-.58.9-.24-.15-.72-.46-.97-.62-.35.01-.21.33-.31.5-.24-.15-.48-.31-.53-.22-.3.12-.13.43.31.78,1.63-.26,4.49,1.09,2.09-1.33Z"/>
    <path class="cls-1" d="M5.95,158.45l-1.27-.81c-.25.11-.55.18-.54.45.75.28,1.25.38,1.82.36Z"/>
    <path class="cls-1" d="M103.66,222.53s.07-.06.24.16c-.08-.06-.16-.11-.24-.16-.03.04-.07.12-.19.08.89.47,1.91,1.05,2.86,1.66.18,0,.36,0,.52-.02-2.35-1.54-4.66-3.13-6.85-3.99,1.34.92,2.36,1.41,3.66,2.27Z"/>
    <path class="cls-1" d="M107.37,223.88c.08.05.16.1.24.16-.16-.22-.2-.21-.24-.16Z"/>
    <path class="cls-1" d="M64.73,197.7c-1.49-.89-2.94-1.45-4.4-2.03,2.87,1.57,5.73,3.31,8,4.38-1.2-.78-2.4-1.57-3.6-2.35Z"/>
    <path class="cls-1" d="M53.25,192.54c1.68,1.33,3.29,2.11,4.88,2.76-1.48-.88-2.94-1.75-4.4-2.62l-.48-.14Z"/>
    <path class="cls-1" d="M55.57,193.34c1.63,1.09,3.2,1.72,4.76,2.34-1.62-.89-3.24-1.71-4.76-2.34Z"/>
    <path class="cls-1" d="M92.84,207.5c1.23.49,1.95.83,2.33,1.05.24,0,.55,0,.96.03-.06-.04-.13-.09-.19-.13-1.2-.6-2.41-1.23-3.63-1.88-.53-.21-1.05-.4-1.51-.52.67.49,1.35.98,2.03,1.44Z"/>
    <path class="cls-1" d="M95.18,208.55c-2.05.02,1.51.87,0,0h0Z"/>
    <path class="cls-1" d="M84.82,208.95l-.16-.11-.51-.27c.23.13.45.25.68.38Z"/>
    <path class="cls-1" d="M73.11,197.74c.96.6,1.95,1.17,2.93,1.71-1.97-1.19-3.95-2.4-5.71-3.23.24.16.42.4.66.56.59.16,1.41.47,2.13.95Z"/>
    <path class="cls-1" d="M92.74,213.21c-2.72-1.55-5.43-3.01-8.08-4.37-5-3.34-9.95-6.38-14.73-8.61-4.24-1.9-10.82-6.5-15.51-7.73.39.31.77.58,1.15.84-.63-.26-1.25-.48-1.84-.66-6.5-3.89-12.82-7.79-19.29-12.01-.96-.63-1.84-.85-2.8-1.47-.98-.62-1.95-1.22-2.91-1.83-.02.02-.02.04,0,.08-4.02-2.46-8.02-4.82-12.31-7.19-1.98-1.16-3.85-2.48-5.78-3.71-.72-.46-.51-.79-.94-1.18-1.66-1.65-2.9-2.9-4.97-4.45,0,0,.11-.17.16-.25-.35-.18-.65-.38-.88-.56,1.63-.26,4.49,1.09,2.09-1.33h0c.17.07.33.13.48.19l.05.03h0c.75.27,1.25.36,1.82.35l-1.27-.81c.15-.06.28-.15.31-.29h.15c.19.13.35.23.35.23.1-.02.19-.06.26-.1,1.34.35,3.2,1.28,3.08.73-.15-.34-1.05-.71-2.04-1.19-.04-.07-.08-.14-.13-.2,1.26.69.37-.58,1.15-.2.97.62,1.99,1.15,2.95,1.77,3.94,2.52,7.3,4.57,11.32,6.8l.53.3c1.93,1.11,3.71,2.23,5.5,3.48-.15-.02-.31-.05-.47-.08,1.44,1,2.9,1.98,4.45,2.81,3.82,2.01,7.64,4.04,11.53,6.48,4.07,2.57,8.05,4.95,12.3,7.37-1.78-.92-3.56-1.85-5.31-2.92-.76-.51-1.52-1.02-2.28-1.49.75.53,1.51,1.03,2.28,1.49,2.93,1.98,5.9,4.08,8.68,4.82.2.23.15.31.39.47,1.68,1.11,3.29,2.3,4.94,2.93.05-.08.77.4.64.07,1.49.87,3.16,1.99,4.7,2.78.66.36,1.38.62,2.12.84,5.42,2.99,10.77,5.96,16.55,9.27,1.42.85,3,1.92,4.38,2.85-2.22-1.11-4.47-2.31-6.73-3.55-2.03-1.46-4.01-2.79-5.92-3.47-.43-.18-.86-.37-1.28-.55,2.42,1.35,4.83,2.7,7.21,4.02,1.2.86,2.41,1.76,3.63,2.59l-.08-.03c-1.03-.55-2.07-1.11-3.11-1.67-1.8-1.29-3.57-2.5-5.28-3.22-.21-.09-.43-.18-.64-.25-.43-.18-.86-.37-1.28-.55,1.49.84,2.98,1.67,4.46,2.5.92.51,1.83,1.01,2.75,1.52.53.38,1.06.77,1.6,1.16-.07-.02-.14-.04-.21-.05-.53-.24-2.51-.19-1.96.53,1.84,1.22,4.1,2.62,5.9,3.71.9.55,1.68,1.02,2.24,1.36.56.34.88.55.87.57.02.48-6.54-3.35-6.35-3.1.33.27.66.54.99.81-.38-.16-.75-.31-1.1-.44-.77-.4-1.66-1.13-2.25-1.29-1.99-.64-3.79-2.09-5.9-3.05-1.36-.56-3-1.19-4.65-1.83-.11.16-.77-.4-.64-.08-1.34-.9-2.9-1.95-3.79-1.86l-.11-.05c-.09-.06-.25-.13-.42-.19-2.18-1.58-4.04-2.18-6.28-3.22-.73-.42-1.46-.87-2.19-1.36.48.32,1.14.88,1.67,1.11.17.08.35.16.52.24,1.88,1.1,3.75,2.04,5.59,3.01.17.05.45.12.7.21l.36.27c.05-.01.11-.02.16-.03,1.8.87,3.71,2.04,5.28,2.74,2.83,1.5,5.55,3.53,8.2,5.4-1.43-.77-2.85-1.51-4.25-2.23,1.72.94,3.34,1.84,4.93,2.7.23.16.45.31.68.47l1.42.97c-.43-.33-.84-.66-1.26-.98.95.5,1.89.99,2.82,1.48,5.02,2.85,10.05,6,14.77,9.42-.16.03-.34.06-.52.07-2.35-1.54-4.66-3.13-6.85-3.99,1.34.91,2.36,1.4,3.66,2.27-.03.05-.07.12-.19.08.89.47,1.91,1.05,2.86,1.66-.44,0-.92-.02-1.4-.04-.58-.16-1.29-.65-2.06-1.06-3.17-1.96-6.03-3.98-9.2-5.84-2.68-1.86-5.35-3.73-8.02-5.5,2.79,1.55,5.36,2.96,7.92,4.26ZM11.02,162.4c.27.12.55.24.83.37l-.08-.13c-.23-.15-.51-.22-.76-.24ZM16.62,166.09c-1.56-1.21-3.87-2.41-6.06-3.63-.03.01-.05.03-.06.05,1.72,1.21,4.03,2.4,6.12,3.58ZM22.12,172.05l-.02-.05-.02.04h.04ZM53.06,188.53c-2.18-.85-4.58-2.44-7.08-3.84-.72-.47-1.65-.62-2.61-1.24-1.25-.71-2.08-1.01-3.09-1.56l.61.63c-1.63-1.18-2.91-1.31-4.48-2.57-.05.08-.4.09-.64-.07-1.25-.7-2.35-1.65-3.41-2.11-1.25-.7-2.45-1.48-3.52-1.94-.24-.16-.88-.22-1.41-.45l-1.81-1.06.03.11c.48.31.97.62,1.49.88,1.55.77,3.34,1.7,4.83,2.55,3.71,2.18,7.28,4.04,10.85,5.91.77.39,1.6.7,2.37,1.09,2.37,1.09,4.95,2.9,6.76,3.28.29.08.77.39,1.12.39ZM58.08,186.76c-2.75-1.32-5.66-3.01-8-4.65-1.92-1.26-7.76-4.39-7.44-2.78,3.55-.23,15.87,10.38,15.44,7.42ZM79,198.54c-1.08-.54-2.13-1.07-3.26-1.84l3.26,1.84ZM66.62,195.06c3.48,1.49,6.87,3.65,10.19,5.4,2.54,1.36,4.89,3.52,7.42,4.4l.16-.24-.29-.08c-.8-.61-1.39-1.19-2.04-1.73l.14.06-.22-.13c-.44-.36-.92-.69-1.52-1.01-.28-.14-.57-.27-.86-.41-3.07-1.86-6.24-3.79-9.28-5.09-1.83-.87-3.54-1.42-5.37-2.29.48.32,1.14.88,1.67,1.11Z"/>
    <path class="cls-1" d="M88.49,210.05c1.09.61,2.19,1.22,3.29,1.83.87.44,1.74.87,2.62,1.31,4.1,2.16,8.45,5.34,12.66,7.94.28-.15.46-.39.49-.74-4.25-3.3-8.98-5.9-13.33-9.06l-.12-.04c-2.23-.81-5.21-3.06-7.86-4.26-2.7-1.12-5.19-2.56-7.85-3.75,3.44,2.31,6.82,4.34,10.11,6.78Z"/>
    <path class="cls-1" d="M58.13,195.29c.97.57,1.94,1.14,2.92,1.72,2.76,1.56,5.26,2.87,7.84,4.17-1.78-1.13-3.56-2.28-5.34-3.46-1.84-1.1-3.62-1.69-5.43-2.44Z"/>
    <path class="cls-1" d="M71,202.24c-.71-.36-1.41-.7-2.1-1.05,2.64,1.67,5.28,3.3,7.92,4.92,4.44,2.51,8.86,5.07,13.36,7.5.51.29,1,.58,1.5.86-7.77-5.41-15.54-10.78-22.91-14.22-.14-.06-.29-.13-.43-.2,3.22,2.07,6.44,4.06,9.65,6.03-2.31-1.31-4.64-2.6-6.99-3.85Z"/>
    <path class="cls-1" d="M87.43,209.48c.23.16.45.32.68.47.28.15.56.3.84.45l-.46-.35-1.06-.58Z"/>
    <path class="cls-1" d="M82.06,202.8l-.08-.07c-.78-.47-1.57-.94-2.37-1.42-1.16-.57-2.36-1.19-3.56-1.86,2.12,1.29,4.23,2.57,6.02,3.35Z"/>
    <path class="cls-1" d="M76.76,196.42c-.24-.16-.72-.48-.96-.64l-.53-.14.66.47.82.32Z"/>
    <path class="cls-1" d="M61.78,188.33c4.46,2.47,8.64,4.8,12.8,7.1.23.07.46.13.7.2-2.6-1.82-5.3-3.46-8.02-4.63-.53-.24-1.41-.47-1.89-.79-2.32-1.43-4.65-2.6-6.95-3.79,1.08.61,2.16,1.22,3.28,1.85l.09.05Z"/>
  </g>
</svg>